<svg xmlns="http://www.w3.org/2000/svg" xmlns:se="http://svg-edit.googlecode.com" xmlns:xlink="http://www.w3.org/1999/xlink" xmlns:dc="http://purl.org/dc/elements/1.1/" xmlns:cc="http://creativecommons.org/ns#" xmlns:rdf="http://www.w3.org/1999/02/22-rdf-syntax-ns#" xmlns:inkscape="http://www.inkscape.org/namespaces/inkscape" width="777" height="480" style="">                                    <title>my vector image</title>                                    <!-- Created with Vector Paint - http://www.vectorpaint.yaks.com/ https://chrome.google.com/webstore/detail/hnbpdiengicdefcjecjbnjnoifekhgdo -->                                    <rect id="backgroundrect" width="100%" height="100%" x="0" y="0" fill="#FFFFFF" stroke="none"/>                                <g class="currentLayer" style=""><title>Layer 1</title><path fill="#0b0bd5" fill-opacity="1" stroke="#0b0bd5" stroke-opacity="1" stroke-width="2" stroke-dasharray="none" stroke-linejoin="round" stroke-linecap="butt" stroke-dashoffset="" fill-rule="nonzero" opacity="1" marker-start="" marker-mid="" marker-end="" d="M105.52126890420914,143.00887036323547 C105.52126890420914,140.52268251793157 107.53508105890526,138.50887036323547 110.02126890420914,138.50887036323547 C112.50745674951301,138.50887036323547 114.52126890420914,140.52268251793157 114.52126890420914,143.00887036323547 C114.52126890420914,145.49505820853938 112.50745674951301,147.50887036323547 110.02126890420914,147.50887036323547 C107.53508105890526,147.50887036323547 105.52126890420914,145.49505820853938 105.52126890420914,143.00887036323547 z" class="" id="svg_15"/><path fill="#0b0bd5" fill-opacity="1" stroke="#0b0bd5" stroke-opacity="1" stroke-width="2" stroke-dasharray="none" stroke-linejoin="round" stroke-linecap="butt" stroke-dashoffset="" fill-rule="nonzero" opacity="1" marker-start="" marker-mid="" marker-end="" d="M105.52126890420914,163.00887036323547 C105.52126890420914,160.52268251793157 107.53508105890526,158.50887036323547 110.02126890420914,158.50887036323547 C112.50745674951301,158.50887036323547 114.52126890420914,160.52268251793157 114.52126890420914,163.00887036323547 C114.52126890420914,165.49505820853938 112.50745674951301,167.50887036323547 110.02126890420914,167.50887036323547 C107.53508105890526,167.50887036323547 105.52126890420914,165.49505820853938 105.52126890420914,163.00887036323547 z" class="" id="svg_1"/><path fill="#0b0bd5" fill-opacity="1" stroke="#0b0bd5" stroke-opacity="1" stroke-width="2" stroke-dasharray="none" stroke-linejoin="round" stroke-linecap="butt" stroke-dashoffset="" fill-rule="nonzero" opacity="1" marker-start="" marker-mid="" marker-end="" d="M105.52126890420914,182.15780651569366 C105.52126890420914,179.67161867038976 107.53508105890526,177.65780651569366 110.02126890420914,177.65780651569366 C112.50745674951301,177.65780651569366 114.52126890420914,179.67161867038976 114.52126890420914,182.15780651569366 C114.52126890420914,184.64399436099757 112.50745674951301,186.65780651569366 110.02126890420914,186.65780651569366 C107.53508105890526,186.65780651569366 105.52126890420914,184.64399436099757 105.52126890420914,182.15780651569366 z" class="" id="svg_2"/><path fill="#0b0bd5" fill-opacity="1" stroke="#0b0bd5" stroke-opacity="1" stroke-width="2" stroke-dasharray="none" stroke-linejoin="round" stroke-linecap="butt" stroke-dashoffset="" fill-rule="nonzero" opacity="1" marker-start="" marker-mid="" marker-end="" d="M66,142.58333587646484 C66,140.09714803116097 68.01381215469613,138.08333587646484 70.5,138.08333587646484 C72.98618784530387,138.08333587646484 75,140.09714803116097 75,142.58333587646484 C75,145.06952372176872 72.98618784530387,147.08333587646484 70.5,147.08333587646484 C68.01381215469613,147.08333587646484 66,145.06952372176872 66,142.58333587646484 z" id="svg_8" class=""/><path fill="#0b0bd5" fill-opacity="1" stroke="#0b0bd5" stroke-opacity="1" stroke-width="2" stroke-dasharray="none" stroke-linejoin="round" stroke-linecap="butt" stroke-dashoffset="" fill-rule="nonzero" opacity="1" marker-start="" marker-mid="" marker-end="" d="M66,162.58333587646484 C66,160.09714803116097 68.01381215469613,158.08333587646484 70.5,158.08333587646484 C72.98618784530387,158.08333587646484 75,160.09714803116097 75,162.58333587646484 C75,165.06952372176872 72.98618784530387,167.08333587646484 70.5,167.08333587646484 C68.01381215469613,167.08333587646484 66,165.06952372176872 66,162.58333587646484 z" class="" id="svg_10"/><path fill="#0b0bd5" fill-opacity="1" stroke="#0b0bd5" stroke-opacity="1" stroke-width="2" stroke-dasharray="none" stroke-linejoin="round" stroke-linecap="butt" stroke-dashoffset="" fill-rule="nonzero" opacity="1" marker-start="" marker-mid="" marker-end="" d="M66,181.73227202892303 C66,179.24608418361916 68.01381215469613,177.23227202892303 70.5,177.23227202892303 C72.98618784530387,177.23227202892303 75,179.24608418361916 75,181.73227202892303 C75,184.2184598742269 72.98618784530387,186.23227202892303 70.5,186.23227202892303 C68.01381215469613,186.23227202892303 66,184.2184598742269 66,181.73227202892303 z" class="" id="svg_11"/><path fill="#0b0bd5" fill-opacity="1" stroke="#0b0bd5" stroke-opacity="1" stroke-width="2" stroke-dasharray="none" stroke-linejoin="round" stroke-linecap="butt" stroke-dashoffset="" fill-rule="nonzero" opacity="1" marker-start="" marker-mid="" marker-end="" d="M86,142.5833396911621 C86,140.09715184585824 88.01381215469613,138.0833396911621 90.5,138.0833396911621 C92.98618784530387,138.0833396911621 95,140.09715184585824 95,142.5833396911621 C95,145.06952753646598 92.98618784530387,147.0833396911621 90.5,147.0833396911621 C88.01381215469613,147.0833396911621 86,145.06952753646598 86,142.5833396911621 z" class="" id="svg_12"/><path fill="#0b0bd5" fill-opacity="1" stroke="#0b0bd5" stroke-opacity="1" stroke-width="2" stroke-dasharray="none" stroke-linejoin="round" stroke-linecap="butt" stroke-dashoffset="" fill-rule="nonzero" opacity="1" marker-start="" marker-mid="" marker-end="" d="M86,162.5833396911621 C86,160.09715184585824 88.01381215469613,158.0833396911621 90.5,158.0833396911621 C92.98618784530387,158.0833396911621 95,160.09715184585824 95,162.5833396911621 C95,165.06952753646598 92.98618784530387,167.0833396911621 90.5,167.0833396911621 C88.01381215469613,167.0833396911621 86,165.06952753646598 86,162.5833396911621 z" class="" id="svg_13"/><path fill="#0b0bd5" fill-opacity="1" stroke="#0b0bd5" stroke-opacity="1" stroke-width="2" stroke-dasharray="none" stroke-linejoin="round" stroke-linecap="butt" stroke-dashoffset="" fill-rule="nonzero" opacity="1" marker-start="" marker-mid="" marker-end="" d="M86,181.7322758436203 C86,179.24608799831643 88.01381215469613,177.2322758436203 90.5,177.2322758436203 C92.98618784530387,177.2322758436203 95,179.24608799831643 95,181.7322758436203 C95,184.21846368892417 92.98618784530387,186.2322758436203 90.5,186.2322758436203 C88.01381215469613,186.2322758436203 86,184.21846368892417 86,181.7322758436203 z" class="" id="svg_14"/></g></svg>